<svg id="Layer_35" enable-background="new 0 0 64 64" height="120px" viewBox="0 0 64 64" width="120px" xmlns="http://www.w3.org/2000/svg"><g><path d="m7 62c-2.761 0-5-2.239-5-5v-45l5-10 5 10v45c0 2.761-2.239 5-5 5z" fill="#e1ac79"/><path d="m2 52h10v4h-10z" fill="#f2d3a9"/><path d="m2 12h10v40h-10z" fill="#78a0d4"/><path d="m9 15-2-2-2 2v37h4z" fill="#3b5892"/><path d="m2 12 3 3 2-2 2 2 3-3-5-10z" fill="#f2d3a9"/><path d="m7 2-3.5 7h7z" fill="#686868"/><path d="m58 58v-42h4v42" fill="#474747"/><path d="m16 16h14v4h-14z" fill="#686868"/><path d="m58 20h-14v-4h14" fill="#686868"/><path d="m16 20v42h4v-42" fill="#474747"/><path d="m20 62h42v-4h-42" fill="#686868"/><g fill="#c1c1c1"><path d="m39 44h1.941c-.463 4.165-3.776 7.478-7.941 7.941v-8.941h-2v15h2v-4.051c5.268-.478 9.472-4.681 9.949-9.949h15.051v-2h-19z"/><path d="m47 28v-8h-2v12h2v-2h11v-2z"/><path d="m20 31h16v2h-16z"/><path d="m25 28v-8h-2v7h-3v2h4c.553 0 1-.447 1-1z"/></g></g></svg>